<mxfile host="app.diagrams.net" agent="Mozilla/5.0 (Windows NT 10.0; Win64; x64) AppleWebKit/537.36 (KHTML, like Gecko) Chrome/138.0.0.0 Safari/537.36" version="28.0.7">
  <diagram id="Ht1M8jgEwFfnCIfOTk4-" name="Page-1">
    <mxGraphModel dx="2852" dy="1676" grid="1" gridSize="10" guides="1" tooltips="1" connect="1" arrows="1" fold="1" page="1" pageScale="1" pageWidth="827" pageHeight="1169" math="0" shadow="0">
      <root>
        <mxCell id="0" />
        <mxCell id="1" parent="0" />
        <mxCell id="1CcSn6TsTYNcUzMV3FvQ-12" value="Region" style="points=[[0,0],[0.25,0],[0.5,0],[0.75,0],[1,0],[1,0.25],[1,0.5],[1,0.75],[1,1],[0.75,1],[0.5,1],[0.25,1],[0,1],[0,0.75],[0,0.5],[0,0.25]];outlineConnect=0;gradientColor=none;html=1;whiteSpace=wrap;fontSize=12;fontStyle=0;container=1;pointerEvents=0;collapsible=0;recursiveResize=0;shape=mxgraph.aws4.group;grIcon=mxgraph.aws4.group_region;strokeColor=#00A4A6;fillColor=none;verticalAlign=top;align=left;spacingLeft=30;fontColor=#147EBA;dashed=1;" vertex="1" parent="1">
          <mxGeometry x="280" y="160" width="1320" height="710" as="geometry" />
        </mxCell>
        <mxCell id="jZVaUwOg5UY3L9NAnvdq-71" value="AWS Cloud" style="points=[[0,0],[0.25,0],[0.5,0],[0.75,0],[1,0],[1,0.25],[1,0.5],[1,0.75],[1,1],[0.75,1],[0.5,1],[0.25,1],[0,1],[0,0.75],[0,0.5],[0,0.25]];outlineConnect=0;gradientColor=none;html=1;whiteSpace=wrap;fontSize=12;fontStyle=0;shape=mxgraph.aws4.group;grIcon=mxgraph.aws4.group_aws_cloud_alt;strokeColor=#232F3E;fillColor=none;verticalAlign=top;align=left;spacingLeft=30;fontColor=#232F3E;dashed=0;labelBackgroundColor=none;container=1;pointerEvents=0;collapsible=0;recursiveResize=0;" parent="1" vertex="1">
          <mxGeometry x="263" y="125" width="1347" height="765" as="geometry" />
        </mxCell>
        <mxCell id="1CcSn6TsTYNcUzMV3FvQ-38" value="" style="fillColor=none;strokeColor=#5A6C86;dashed=1;verticalAlign=top;fontStyle=0;fontColor=#5A6C86;whiteSpace=wrap;html=1;" vertex="1" parent="jZVaUwOg5UY3L9NAnvdq-71">
          <mxGeometry x="220" y="40" width="820" height="690" as="geometry" />
        </mxCell>
        <mxCell id="1CcSn6TsTYNcUzMV3FvQ-1" value="VPC" style="points=[[0,0],[0.25,0],[0.5,0],[0.75,0],[1,0],[1,0.25],[1,0.5],[1,0.75],[1,1],[0.75,1],[0.5,1],[0.25,1],[0,1],[0,0.75],[0,0.5],[0,0.25]];outlineConnect=0;gradientColor=none;html=1;whiteSpace=wrap;fontSize=12;fontStyle=0;container=1;pointerEvents=0;collapsible=0;recursiveResize=0;shape=mxgraph.aws4.group;grIcon=mxgraph.aws4.group_vpc2;strokeColor=#8C4FFF;fillColor=none;verticalAlign=top;align=left;spacingLeft=30;fontColor=#AAB7B8;dashed=0;" vertex="1" parent="jZVaUwOg5UY3L9NAnvdq-71">
          <mxGeometry x="27" y="120" width="1293" height="610" as="geometry" />
        </mxCell>
        <mxCell id="1CcSn6TsTYNcUzMV3FvQ-28" value="" style="group" vertex="1" connectable="0" parent="1CcSn6TsTYNcUzMV3FvQ-1">
          <mxGeometry x="620" y="25" width="300" height="535" as="geometry" />
        </mxCell>
        <mxCell id="1CcSn6TsTYNcUzMV3FvQ-29" value="Availability Zone z" style="fillColor=none;strokeColor=#147EBA;dashed=1;verticalAlign=top;fontStyle=0;fontColor=#147EBA;whiteSpace=wrap;html=1;" vertex="1" parent="1CcSn6TsTYNcUzMV3FvQ-28">
          <mxGeometry width="300" height="535" as="geometry" />
        </mxCell>
        <mxCell id="1CcSn6TsTYNcUzMV3FvQ-30" value="" style="group" vertex="1" connectable="0" parent="1CcSn6TsTYNcUzMV3FvQ-28">
          <mxGeometry x="10" y="20" width="270" height="505" as="geometry" />
        </mxCell>
        <mxCell id="1CcSn6TsTYNcUzMV3FvQ-31" value="Private subnet 2" style="points=[[0,0],[0.25,0],[0.5,0],[0.75,0],[1,0],[1,0.25],[1,0.5],[1,0.75],[1,1],[0.75,1],[0.5,1],[0.25,1],[0,1],[0,0.75],[0,0.5],[0,0.25]];outlineConnect=0;gradientColor=none;html=1;whiteSpace=wrap;fontSize=12;fontStyle=0;container=1;pointerEvents=0;collapsible=0;recursiveResize=0;shape=mxgraph.aws4.group;grIcon=mxgraph.aws4.group_security_group;grStroke=0;strokeColor=#00A4A6;fillColor=#E6F6F7;verticalAlign=top;align=left;spacingLeft=30;fontColor=#147EBA;dashed=0;" vertex="1" parent="1CcSn6TsTYNcUzMV3FvQ-30">
          <mxGeometry y="175" width="270" height="330" as="geometry" />
        </mxCell>
        <mxCell id="1CcSn6TsTYNcUzMV3FvQ-32" value="Control plane" style="aspect=fixed;sketch=0;html=1;dashed=0;whitespace=wrap;verticalLabelPosition=bottom;verticalAlign=top;fillColor=#2875E2;strokeColor=#ffffff;points=[[0.005,0.63,0],[0.1,0.2,0],[0.9,0.2,0],[0.5,0,0],[0.995,0.63,0],[0.72,0.99,0],[0.5,1,0],[0.28,0.99,0]];shape=mxgraph.kubernetes.icon2;prIcon=control_plane;container=1;" vertex="1" parent="1CcSn6TsTYNcUzMV3FvQ-31">
          <mxGeometry x="110" y="96" width="50" height="48" as="geometry" />
        </mxCell>
        <mxCell id="1CcSn6TsTYNcUzMV3FvQ-33" value="Public subnet 1" style="points=[[0,0],[0.25,0],[0.5,0],[0.75,0],[1,0],[1,0.25],[1,0.5],[1,0.75],[1,1],[0.75,1],[0.5,1],[0.25,1],[0,1],[0,0.75],[0,0.5],[0,0.25]];outlineConnect=0;gradientColor=none;html=1;whiteSpace=wrap;fontSize=12;fontStyle=0;container=1;pointerEvents=0;collapsible=0;recursiveResize=0;shape=mxgraph.aws4.group;grIcon=mxgraph.aws4.group_security_group;grStroke=0;strokeColor=#7AA116;fillColor=#F2F6E8;verticalAlign=top;align=left;spacingLeft=30;fontColor=#248814;dashed=0;" vertex="1" parent="1CcSn6TsTYNcUzMV3FvQ-30">
          <mxGeometry width="270" height="165" as="geometry" />
        </mxCell>
        <mxCell id="1CcSn6TsTYNcUzMV3FvQ-34" value="NAT gateway" style="sketch=0;outlineConnect=0;fontColor=#232F3E;gradientColor=none;fillColor=#8C4FFF;strokeColor=none;dashed=0;verticalLabelPosition=bottom;verticalAlign=top;align=center;html=1;fontSize=12;fontStyle=0;aspect=fixed;pointerEvents=1;shape=mxgraph.aws4.nat_gateway;" vertex="1" parent="1CcSn6TsTYNcUzMV3FvQ-30">
          <mxGeometry x="90" y="50" width="78" height="78" as="geometry" />
        </mxCell>
        <mxCell id="1CcSn6TsTYNcUzMV3FvQ-35" value="Node" style="aspect=fixed;sketch=0;html=1;dashed=0;whitespace=wrap;verticalLabelPosition=bottom;verticalAlign=top;fillColor=#2875E2;strokeColor=#ffffff;points=[[0.005,0.63,0],[0.1,0.2,0],[0.9,0.2,0],[0.5,0,0],[0.995,0.63,0],[0.72,0.99,0],[0.5,1,0],[0.28,0.99,0]];shape=mxgraph.kubernetes.icon2;prIcon=control_plane" vertex="1" parent="1CcSn6TsTYNcUzMV3FvQ-30">
          <mxGeometry x="110" y="380" width="50" height="48" as="geometry" />
        </mxCell>
        <mxCell id="1CcSn6TsTYNcUzMV3FvQ-23" value="" style="group" vertex="1" connectable="0" parent="1CcSn6TsTYNcUzMV3FvQ-1">
          <mxGeometry x="230" y="25" width="590" height="535" as="geometry" />
        </mxCell>
        <mxCell id="1CcSn6TsTYNcUzMV3FvQ-2" value="Availability Zone a" style="fillColor=none;strokeColor=#147EBA;dashed=1;verticalAlign=top;fontStyle=0;fontColor=#147EBA;whiteSpace=wrap;html=1;" vertex="1" parent="1CcSn6TsTYNcUzMV3FvQ-23">
          <mxGeometry width="300" height="535" as="geometry" />
        </mxCell>
        <mxCell id="1CcSn6TsTYNcUzMV3FvQ-22" value="" style="group" vertex="1" connectable="0" parent="1CcSn6TsTYNcUzMV3FvQ-23">
          <mxGeometry x="10" y="20" width="270" height="505" as="geometry" />
        </mxCell>
        <mxCell id="1CcSn6TsTYNcUzMV3FvQ-5" value="Private subnet 2" style="points=[[0,0],[0.25,0],[0.5,0],[0.75,0],[1,0],[1,0.25],[1,0.5],[1,0.75],[1,1],[0.75,1],[0.5,1],[0.25,1],[0,1],[0,0.75],[0,0.5],[0,0.25]];outlineConnect=0;gradientColor=none;html=1;whiteSpace=wrap;fontSize=12;fontStyle=0;container=1;pointerEvents=0;collapsible=0;recursiveResize=0;shape=mxgraph.aws4.group;grIcon=mxgraph.aws4.group_security_group;grStroke=0;strokeColor=#00A4A6;fillColor=#E6F6F7;verticalAlign=top;align=left;spacingLeft=30;fontColor=#147EBA;dashed=0;" vertex="1" parent="1CcSn6TsTYNcUzMV3FvQ-22">
          <mxGeometry y="175" width="270" height="330" as="geometry" />
        </mxCell>
        <mxCell id="1CcSn6TsTYNcUzMV3FvQ-24" value="Control plane" style="aspect=fixed;sketch=0;html=1;dashed=0;whitespace=wrap;verticalLabelPosition=bottom;verticalAlign=top;fillColor=#2875E2;strokeColor=#ffffff;points=[[0.005,0.63,0],[0.1,0.2,0],[0.9,0.2,0],[0.5,0,0],[0.995,0.63,0],[0.72,0.99,0],[0.5,1,0],[0.28,0.99,0]];shape=mxgraph.kubernetes.icon2;prIcon=control_plane;container=1;" vertex="1" parent="1CcSn6TsTYNcUzMV3FvQ-5">
          <mxGeometry x="110" y="96" width="50" height="48" as="geometry" />
        </mxCell>
        <mxCell id="1CcSn6TsTYNcUzMV3FvQ-8" value="Public subnet 1" style="points=[[0,0],[0.25,0],[0.5,0],[0.75,0],[1,0],[1,0.25],[1,0.5],[1,0.75],[1,1],[0.75,1],[0.5,1],[0.25,1],[0,1],[0,0.75],[0,0.5],[0,0.25]];outlineConnect=0;gradientColor=none;html=1;whiteSpace=wrap;fontSize=12;fontStyle=0;container=1;pointerEvents=0;collapsible=0;recursiveResize=0;shape=mxgraph.aws4.group;grIcon=mxgraph.aws4.group_security_group;grStroke=0;strokeColor=#7AA116;fillColor=#F2F6E8;verticalAlign=top;align=left;spacingLeft=30;fontColor=#248814;dashed=0;" vertex="1" parent="1CcSn6TsTYNcUzMV3FvQ-22">
          <mxGeometry width="270" height="165" as="geometry" />
        </mxCell>
        <mxCell id="1CcSn6TsTYNcUzMV3FvQ-20" value="NAT gateway" style="sketch=0;outlineConnect=0;fontColor=#232F3E;gradientColor=none;fillColor=#8C4FFF;strokeColor=none;dashed=0;verticalLabelPosition=bottom;verticalAlign=top;align=center;html=1;fontSize=12;fontStyle=0;aspect=fixed;pointerEvents=1;shape=mxgraph.aws4.nat_gateway;" vertex="1" parent="1CcSn6TsTYNcUzMV3FvQ-22">
          <mxGeometry x="90" y="50" width="78" height="78" as="geometry" />
        </mxCell>
        <mxCell id="1CcSn6TsTYNcUzMV3FvQ-25" value="Node" style="aspect=fixed;sketch=0;html=1;dashed=0;whitespace=wrap;verticalLabelPosition=bottom;verticalAlign=top;fillColor=#2875E2;strokeColor=#ffffff;points=[[0.005,0.63,0],[0.1,0.2,0],[0.9,0.2,0],[0.5,0,0],[0.995,0.63,0],[0.72,0.99,0],[0.5,1,0],[0.28,0.99,0]];shape=mxgraph.kubernetes.icon2;prIcon=control_plane" vertex="1" parent="1CcSn6TsTYNcUzMV3FvQ-22">
          <mxGeometry x="110" y="380" width="50" height="48" as="geometry" />
        </mxCell>
        <mxCell id="1CcSn6TsTYNcUzMV3FvQ-37" value="" style="fillColor=none;strokeColor=#5A6C86;dashed=1;verticalAlign=top;fontStyle=0;fontColor=#5A6C86;whiteSpace=wrap;html=1;" vertex="1" parent="1CcSn6TsTYNcUzMV3FvQ-23">
          <mxGeometry x="90" y="380" width="500" height="100" as="geometry" />
        </mxCell>
        <mxCell id="1CcSn6TsTYNcUzMV3FvQ-53" value="5" style="rounded=1;whiteSpace=wrap;html=1;fillColor=#007CBD;strokeColor=none;fontColor=#FFFFFF;fontStyle=1;fontSize=22;labelBackgroundColor=none;" vertex="1" parent="1CcSn6TsTYNcUzMV3FvQ-23">
          <mxGeometry x="180" y="110" width="40" height="38" as="geometry" />
        </mxCell>
        <mxCell id="jZVaUwOg5UY3L9NAnvdq-105" value="6" style="rounded=1;whiteSpace=wrap;html=1;fillColor=#007CBD;strokeColor=none;fontColor=#FFFFFF;fontStyle=1;fontSize=22;labelBackgroundColor=none;" parent="1CcSn6TsTYNcUzMV3FvQ-23" vertex="1">
          <mxGeometry x="330" y="240" width="40" height="38" as="geometry" />
        </mxCell>
        <mxCell id="jZVaUwOg5UY3L9NAnvdq-107" value="8" style="rounded=1;whiteSpace=wrap;html=1;fillColor=#007CBD;strokeColor=none;fontColor=#FFFFFF;fontStyle=1;fontSize=22;labelBackgroundColor=none;" parent="1CcSn6TsTYNcUzMV3FvQ-23" vertex="1">
          <mxGeometry x="190" y="430" width="40" height="38" as="geometry" />
        </mxCell>
        <mxCell id="1CcSn6TsTYNcUzMV3FvQ-14" value="ECR" style="sketch=0;points=[[0,0,0],[0.25,0,0],[0.5,0,0],[0.75,0,0],[1,0,0],[0,1,0],[0.25,1,0],[0.5,1,0],[0.75,1,0],[1,1,0],[0,0.25,0],[0,0.5,0],[0,0.75,0],[1,0.25,0],[1,0.5,0],[1,0.75,0]];outlineConnect=0;fontColor=#232F3E;fillColor=#ED7100;strokeColor=#ffffff;dashed=0;verticalLabelPosition=bottom;verticalAlign=top;align=center;html=1;fontSize=12;fontStyle=0;aspect=fixed;shape=mxgraph.aws4.resourceIcon;resIcon=mxgraph.aws4.ecr;" vertex="1" parent="1CcSn6TsTYNcUzMV3FvQ-1">
          <mxGeometry x="60" y="398" width="78" height="78" as="geometry" />
        </mxCell>
        <mxCell id="1CcSn6TsTYNcUzMV3FvQ-11" value="Auto Scaling" style="sketch=0;points=[[0,0,0],[0.25,0,0],[0.5,0,0],[0.75,0,0],[1,0,0],[0,1,0],[0.25,1,0],[0.5,1,0],[0.75,1,0],[1,1,0],[0,0.25,0],[0,0.5,0],[0,0.75,0],[1,0.25,0],[1,0.5,0],[1,0.75,0]];outlineConnect=0;fontColor=#232F3E;fillColor=#ED7100;strokeColor=#ffffff;dashed=0;verticalLabelPosition=bottom;verticalAlign=top;align=center;html=1;fontSize=12;fontStyle=0;aspect=fixed;shape=mxgraph.aws4.resourceIcon;resIcon=mxgraph.aws4.auto_scaling3;" vertex="1" parent="1CcSn6TsTYNcUzMV3FvQ-1">
          <mxGeometry x="549.5" y="313" width="53" height="53" as="geometry" />
        </mxCell>
        <mxCell id="1CcSn6TsTYNcUzMV3FvQ-17" value="Auto Scaling" style="sketch=0;points=[[0,0,0],[0.25,0,0],[0.5,0,0],[0.75,0,0],[1,0,0],[0,1,0],[0.25,1,0],[0.5,1,0],[0.75,1,0],[1,1,0],[0,0.25,0],[0,0.5,0],[0,0.75,0],[1,0.25,0],[1,0.5,0],[1,0.75,0]];outlineConnect=0;fontColor=#232F3E;fillColor=#ED7100;strokeColor=#ffffff;dashed=0;verticalLabelPosition=bottom;verticalAlign=top;align=center;html=1;fontSize=12;fontStyle=0;aspect=fixed;shape=mxgraph.aws4.resourceIcon;resIcon=mxgraph.aws4.auto_scaling3;" vertex="1" parent="1CcSn6TsTYNcUzMV3FvQ-1">
          <mxGeometry x="549.5" y="423" width="53" height="53" as="geometry" />
        </mxCell>
        <mxCell id="jZVaUwOg5UY3L9NAnvdq-130" style="edgeStyle=elbowEdgeStyle;rounded=0;orthogonalLoop=1;jettySize=auto;html=1;endArrow=open;endFill=0;strokeColor=#545B64;strokeWidth=2;fontSize=14;" parent="1CcSn6TsTYNcUzMV3FvQ-1" target="1CcSn6TsTYNcUzMV3FvQ-42" edge="1">
          <mxGeometry relative="1" as="geometry">
            <mxPoint x="-70" y="207" as="sourcePoint" />
            <mxPoint x="100" y="241.0008863032067" as="targetPoint" />
            <Array as="points">
              <mxPoint x="100" y="267" />
            </Array>
          </mxGeometry>
        </mxCell>
        <mxCell id="1CcSn6TsTYNcUzMV3FvQ-42" value="Elastic Load Balancer" style="sketch=0;points=[[0,0,0],[0.25,0,0],[0.5,0,0],[0.75,0,0],[1,0,0],[0,1,0],[0.25,1,0],[0.5,1,0],[0.75,1,0],[1,1,0],[0,0.25,0],[0,0.5,0],[0,0.75,0],[1,0.25,0],[1,0.5,0],[1,0.75,0]];outlineConnect=0;fontColor=#232F3E;fillColor=#ED7100;strokeColor=#ffffff;dashed=0;verticalLabelPosition=bottom;verticalAlign=top;align=center;html=1;fontSize=12;fontStyle=0;aspect=fixed;shape=mxgraph.aws4.resourceIcon;resIcon=mxgraph.aws4.elastic_load_balancing;" vertex="1" parent="1CcSn6TsTYNcUzMV3FvQ-1">
          <mxGeometry x="60" y="245" width="78" height="78" as="geometry" />
        </mxCell>
        <mxCell id="jZVaUwOg5UY3L9NAnvdq-149" value="" style="rounded=0;orthogonalLoop=1;jettySize=auto;html=1;endArrow=none;endFill=0;strokeColor=#545B64;strokeWidth=2;fontSize=14;" parent="1CcSn6TsTYNcUzMV3FvQ-1" edge="1">
          <mxGeometry relative="1" as="geometry">
            <mxPoint x="1029.9999999999995" y="415.625" as="sourcePoint" />
            <mxPoint x="1010" y="405" as="targetPoint" />
          </mxGeometry>
        </mxCell>
        <mxCell id="jZVaUwOg5UY3L9NAnvdq-102" value="2" style="rounded=1;whiteSpace=wrap;html=1;fillColor=#007CBD;strokeColor=none;fontColor=#FFFFFF;fontStyle=1;fontSize=22;labelBackgroundColor=none;" parent="1CcSn6TsTYNcUzMV3FvQ-1" vertex="1">
          <mxGeometry x="124" y="195" width="40" height="38" as="geometry" />
        </mxCell>
        <mxCell id="jZVaUwOg5UY3L9NAnvdq-103" value="3" style="rounded=1;whiteSpace=wrap;html=1;fillColor=#007CBD;strokeColor=none;fontColor=#FFFFFF;fontStyle=1;fontSize=22;labelBackgroundColor=none;" parent="1CcSn6TsTYNcUzMV3FvQ-1" vertex="1">
          <mxGeometry x="138" y="485" width="40" height="38" as="geometry" />
        </mxCell>
        <mxCell id="1CcSn6TsTYNcUzMV3FvQ-18" value="EKS" style="sketch=0;points=[[0,0,0],[0.25,0,0],[0.5,0,0],[0.75,0,0],[1,0,0],[0,1,0],[0.25,1,0],[0.5,1,0],[0.75,1,0],[1,1,0],[0,0.25,0],[0,0.5,0],[0,0.75,0],[1,0.25,0],[1,0.5,0],[1,0.75,0]];outlineConnect=0;fontColor=#232F3E;fillColor=#ED7100;strokeColor=#ffffff;dashed=0;verticalLabelPosition=bottom;verticalAlign=top;align=center;html=1;fontSize=12;fontStyle=0;aspect=fixed;shape=mxgraph.aws4.resourceIcon;resIcon=mxgraph.aws4.eks;" vertex="1" parent="jZVaUwOg5UY3L9NAnvdq-71">
          <mxGeometry x="547" y="45" width="48" height="48" as="geometry" />
        </mxCell>
        <mxCell id="1CcSn6TsTYNcUzMV3FvQ-7" value="Internet Gateway" style="sketch=0;outlineConnect=0;fontColor=#232F3E;gradientColor=none;fillColor=#8C4FFF;strokeColor=none;dashed=0;verticalLabelPosition=bottom;verticalAlign=top;align=center;html=1;fontSize=12;fontStyle=0;aspect=fixed;pointerEvents=1;shape=mxgraph.aws4.internet_gateway;" vertex="1" parent="jZVaUwOg5UY3L9NAnvdq-71">
          <mxGeometry x="127" y="46" width="46" height="46" as="geometry" />
        </mxCell>
        <mxCell id="1CcSn6TsTYNcUzMV3FvQ-41" style="edgeStyle=orthogonalEdgeStyle;rounded=0;orthogonalLoop=1;jettySize=auto;html=1;entryX=0;entryY=0.75;entryDx=0;entryDy=0;" edge="1" parent="jZVaUwOg5UY3L9NAnvdq-71" source="1CcSn6TsTYNcUzMV3FvQ-14" target="1CcSn6TsTYNcUzMV3FvQ-38">
          <mxGeometry relative="1" as="geometry" />
        </mxCell>
        <mxCell id="1CcSn6TsTYNcUzMV3FvQ-46" value="Redshift" style="sketch=0;points=[[0,0,0],[0.25,0,0],[0.5,0,0],[0.75,0,0],[1,0,0],[0,1,0],[0.25,1,0],[0.5,1,0],[0.75,1,0],[1,1,0],[0,0.25,0],[0,0.5,0],[0,0.75,0],[1,0.25,0],[1,0.5,0],[1,0.75,0]];outlineConnect=0;fontColor=#232F3E;fillColor=#8C4FFF;strokeColor=#ffffff;dashed=0;verticalLabelPosition=top;verticalAlign=bottom;align=center;html=1;fontSize=12;fontStyle=0;aspect=fixed;shape=mxgraph.aws4.resourceIcon;resIcon=mxgraph.aws4.redshift;labelPosition=center;" vertex="1" parent="jZVaUwOg5UY3L9NAnvdq-71">
          <mxGeometry x="1217" y="305" width="78" height="78" as="geometry" />
        </mxCell>
        <mxCell id="1CcSn6TsTYNcUzMV3FvQ-47" value="S3" style="sketch=0;points=[[0,0,0],[0.25,0,0],[0.5,0,0],[0.75,0,0],[1,0,0],[0,1,0],[0.25,1,0],[0.5,1,0],[0.75,1,0],[1,1,0],[0,0.25,0],[0,0.5,0],[0,0.75,0],[1,0.25,0],[1,0.5,0],[1,0.75,0]];outlineConnect=0;fontColor=#232F3E;fillColor=#7AA116;strokeColor=#ffffff;dashed=0;verticalLabelPosition=top;verticalAlign=bottom;align=left;html=1;fontSize=12;fontStyle=0;aspect=fixed;shape=mxgraph.aws4.resourceIcon;resIcon=mxgraph.aws4.s3;labelPosition=right;" vertex="1" parent="jZVaUwOg5UY3L9NAnvdq-71">
          <mxGeometry x="1217" y="452" width="78" height="78" as="geometry" />
        </mxCell>
        <mxCell id="1CcSn6TsTYNcUzMV3FvQ-48" value="Sagemaker" style="sketch=0;points=[[0,0,0],[0.25,0,0],[0.5,0,0],[0.75,0,0],[1,0,0],[0,1,0],[0.25,1,0],[0.5,1,0],[0.75,1,0],[1,1,0],[0,0.25,0],[0,0.5,0],[0,0.75,0],[1,0.25,0],[1,0.5,0],[1,0.75,0]];outlineConnect=0;fontColor=#232F3E;fillColor=#01A88D;strokeColor=#ffffff;dashed=0;verticalLabelPosition=bottom;verticalAlign=top;align=center;html=1;fontSize=12;fontStyle=0;aspect=fixed;shape=mxgraph.aws4.resourceIcon;resIcon=mxgraph.aws4.sagemaker;" vertex="1" parent="jZVaUwOg5UY3L9NAnvdq-71">
          <mxGeometry x="1217" y="603" width="78" height="78" as="geometry" />
        </mxCell>
        <mxCell id="1CcSn6TsTYNcUzMV3FvQ-50" style="edgeStyle=orthogonalEdgeStyle;rounded=0;orthogonalLoop=1;jettySize=auto;html=1;entryX=0.5;entryY=1;entryDx=0;entryDy=0;entryPerimeter=0;startArrow=classic;startFill=1;" edge="1" parent="jZVaUwOg5UY3L9NAnvdq-71" source="1CcSn6TsTYNcUzMV3FvQ-48" target="1CcSn6TsTYNcUzMV3FvQ-47">
          <mxGeometry relative="1" as="geometry" />
        </mxCell>
        <mxCell id="1CcSn6TsTYNcUzMV3FvQ-45" value="Airflow" style="shape=image;verticalLabelPosition=bottom;labelBackgroundColor=default;verticalAlign=top;aspect=fixed;imageAspect=0;image=data:image/png,iVBORw0KGgoAAAANSUhEUgAAAUAAAAFACAMAAAD6TlWYAAAC/VBMVEVHcEwMxPsA5f4szfsA5PsA5f4pqOIA5PsA3/8quuwA4/pCgGsB4vkA4v4LzfsA4v9+FwCAEwBFXA1sDwBbEglsDwB/EgCLFACPFACaHgKjFgCoFwCrFwCuGABnDgBwEABwEABxEQByFAdcDQBWCwBiDQBmDgBoDgBqDgBsDwBtDwBvEABxDwBzDwB2EAB6EQB+EgCBEgCEEwCHEwCSFACXFQCaFQCfFgBsEABQCwEA4/8A5P6yGQDALAC2LwDCLAC+LACpLgi5LwAA5v4A6P7ALAAA5v+8LgAA6v6+LgDALgAB5PjDLQAA7P4A7f/FLQAA7v/HLQAA8P7KLAAA8/6NOiqPWEiJoMiUxf18ufODbHt2h6iRxf2LxP2Oxf0WbasjvccA+vw9rK0lqf5fjYMB5fkD2uoAfa4UZKoA4+8BjbUBZZYH0OEA4/MEYo+IxP2GxP6Cxf8A3vAAaJgTZKoBbZ+ExP0Af7EUaq4Ad6oAwdkAdKaKw/yBw/0Ab6AA6/YKstIAbJ2JxPyMxPwA6PUAoMNlRUocaLmLxPyKxP1+w/5qqOgAb6EA5fMAcaMA4fEA7/gAe64UiopWlN01fdMqasEmXL4lW7okWrgiWLUhV7A8U2QeVascUqYSQVABAgIoXsIUp/sA9vsA/f4Es2wE1F8AqUsA6VAA6E0A604AwTIALwAAnywBrqsA//8A8/kAcwIjW7YA3kUAiQQAhhwA7OAAeAAAgQMA28gK0HYA50oAqiAAewAwl+wireoKybAAlRMgV7AmqP4gp/4A1zwAfQEGxJEkqP4qqf4AkQYtqf4A5UcgWLAA40Uwqv4AhAQzqv4A4kIvp/w4q/4A4T8A3zwAjAUA3TgAhAMAdwAAjwYA1EEAkgYAfwIAgAMAhwMAgAMAlAcAfgIApR8AfwIAiAUAlwYAmQgapv4AnAgdp/4Ypv4Vpv8A3T4AogoUpv4A2zoZp/4A3D4AnwkVpv4A30AWpv4ApQoAnwkAqAsA4EQAqgsTpv8MpP8Opv7j5Mn6AAAA/3RSTlMAWTFD0uwYt/8LmgV++SP/Jz8Ruvj08v//+f/////j0Zt+X/////////////////////////////z/////t//jX/3///+M//////9q///////////////+//7//////1n///8x//783jD8/N79/f///////76k//95//v/lf////z/Z+7/+/+L1r///PH////////6+vv//////////////3f///////////v////////q+v//////////+//6///82f//9//////3//+q///////x///////29f9R/+Vg/4z/tyrQQP///////+yq//aLk23/s9DR//b/jv///5lpPkP3AAAkBUlEQVR4AezVp3XFAAAEwZ+UU//VOlAzvYWeuQ6W3OP/AgAAAAB4vh4E74+AxeszhICM0xwCsqxzCMi2HwIWz2EWMHgPs4DpgGcB2wELGA9YwHjAAsYDFjAesIDhgFtAB9wCOuASkP2IAR1wC+iAQ0DOz9wCOuAW0AHHgA64B3TAPaADvn73S8C7B3z9IeCNA/5mxiy4HDeCIBx6eGS2ZZnZWQvMy3DM+P//S6Y1UZ9KcsdPebOzV4GHgfuuqr/RIjojDSwU7yuFQqFUevToFxIwkjPTwEfFciWZaqWaTq1aS6Vea6g/nIaTStNxHdd1W622U62odDrdcrnXHxQLpUe/goDNA6QUysPRUGU8Hk8mE/prMp3N53+fnCw83/eDwA8oYRguV6vVel2P0lChv2022+12t9vt980obpRWu3l6Fmc0qnS6vb6i+MACfnY/AB+VehXiFyHU/DRARTBC+BPgUiOMIDaIHkUDJIT/QtQEXS/GpzMcdsq9QeHRgwkY+JmVSKlPBDU/CWCYBhjVjwpIyfBTcf2YHzVcZ9wp94ulhxHwMzCIYQsPOlTBHA2kxA1U4Qbum25MsJ0lOKZUuz1iaFvAaWznHCPPmGI3/vX9dwOXALCRALhPV7DdbvnxgjU++g/QkZ1Wu9RD2wJGdhccEwBJJeMY4FRsIFeQ8AFAlQxAIjjCBhJA/TtULQ8KDyFgZGcKIEWp5OeEp/P5XAP0JIDcQJwwALxUBNMN5IqfdmjKVgWM8MwCJJVU8wDEBsKGGSATHGID44qrGpasCRjpmQZIeTToMMAZAqTIDUSAbrKCRJD4EcJxBuBicdrtFywImPAhNYMAQSVRBxGgJhjKAEWLEMBL91Ru4An9+40hlAWM5TMOEFQySVpkARaRNCxbhAnyt87Bd5I6ho/uU8BIzzxA/Co5PazhMMcRxApeNqcsERU+Ebri9B8IgpphhCBggmQDIKsk0xBZw8cBUvYTfsbgkeX/gG8WIQj4wi5AUgkA9I43MLVh9jATdMaJBhLCLEDVwn7pPgR8YRsgqUTWMH4NSxV0oYIqDW4gARQqXr8qmBfwxTPrAEkls6xFQtkiwoaTBNfwkhY+Fp2romkBEyDLAClKJTmOoLBhqOBlKLxjoILXN7dmBXxhFyCo5LiG5Q272Qq2PGhg/K2DFbx7fnP7yJqAX+i8NAgQVMJHUP6JlvyWxrcgxT1VBEUNB1Ea18+vX5UsCJjAcUwCBJXIRxA8LFcQCe7GgkWggs+vTankz79keBYAkkpOjx1BWSPoEZ3G+BBAqKBz/fz5cyMqIQG/FuhZAkhfJfiQAQ8fqyCPGEQCADNHMFiqCr5Rh9C4gIEe5OVb0wBBJQuY2BGNYAezI26dMkA4gsmXzHMKqcS4gNPgOMYBgkoW4oZBI+KIgeB+qiUib3hNG37z5jmpxKiAD8CTLWxUJZkNyxU8TrCROoLwNUcJ7wigCqnElIABH7OTG2hYJZ7kYbmCcAaBYHjwCOJL5g3lHanEkICBHsCjGLuB8leJ5+euIDcwRdA9ZYC8Yajg8o4Aqr/e51UJCFjCh/DkBhpWSa4KpkeMBHcRvvSGEwSd50SQolRiQMCID9HJDTStkmQFl1DBHAQ1wjVuGCqoNRIDfP8un0pAwDI+aw0ElcgVbKRHDGeQCXIJXT8GiBVkhHcEj/Lu3bv/oZJHHxICTuADenYaCCphTcoVzBCkIEFiuJuqDmYqyAB95zkDfP8+r0pAwFL77DeQvkoOagQ9giNuMkGYcZtGzBvGChJCf3UdA1T5mE8lIGDAJ+eTDYCkkppMEEeMHcyWUI04vWEY8R0DpA6KKpEFjPxkfG917AAkleAVlEeMHaRDCAgvt1PecIIg4aN4Dh9BAvjxvagSWcBQP5GdzmdLAEklQgUFgtxBIEgIVxO5gj5s+L0i+FFQiSxgqJ8Mz04DQSVcwQMmlgm6aYTNEwZ4gCBtGAB+EVQiCBj4ifg4X60BpK8SrCCMWCbIJeQdNyYTqCASdBJHkAB+/CaoRBKwWL+32XyyIBFQia4gjlgmyCVEhG4wyVSQCXr15wCQklGJLGCZX5qcznebAEklXME8BNMt3M0SBE9SBINrsIhOWiXyj6CF+WbhWbyBoBIYsUwQEIKOKUuoIBD0AgePIOXLF0ElIGCZX5reW46lBoJKZIIbTVAsITPcnwoEFULvIMBvgkpAwBI/oJeCaRkgfZUcMDG4GAkyQriFawDIBAmht7rGI6gJ/iCVyAKW+SE+PIEWGwgqOXwGMwQRIdRwv5AJwkOGAX75xioRBCzyY2bA0XIDQSW1HB3MIHSjv9VjgEiQ4uOGGeC3b6ASEDDyE/ExvU/2LYwqOdZBLCEi1BA9rmCGYOYlyARZJZKAZX6Mkel9jQIALaok/Idau3pvozuDAF4mXxYUXxUcOcwkF/Q8DpPdfAYpkkzNZ4pqJjlWmBn/4b6z+zrjlSZZ3el0jLn9PXPOaOWkCypCGu7qTgqS8MDxswRkBSE4yClRAyz86OY/aGdpTwMRmxI5xVqQhDQ8c3gb0AVJeDQvzzAqyCnRA6z9nI96oPO0B7ADUwJAIZhGiHgFhSByuFecYQp2fGeA4Sfrh+/bejs7ONQOQJ+SVEESCkOrYNb8pCAuQXmGITjoU6KegOmn67dTbyBOGwA5JUnBb5dQE/oQNwvuc0Ce4aQgp8QHmH4EpF8D3w68tjWQUwJBLoku4XBhuJOENDx9KOuEkSAJ9584K84wATklcoCFX4LP7TztAKTgXyjIY9xA2Fm8WSoWy4VOGjoiHkcoSMIcV0RXEFOinoDpRz76uR7x8M+2NJBJTokWrNyMA0MSAvFU/M4qBSPC/Qf2+4roM+yCHRxgcQHK+pHPJREChjAlgrBsdiM3R0bsx2gxqiFjb8pQ0AmRgwSUFURsSjDArfqRz/FEAwOaEhLCz/iQMfsEIe/Dk/uyUnA/VkRXkIL/Gv8lCyguQOVHvTAaiHRwSkQJC6UdgJYRa+GOXT7STcGI0A0JqCsYpTBxkX7iAnS/Rj7qIf8hYDhTQsHhIvwIiJTKw19f3GT2ZClIwr27zmpAXoNI763W/chHPYsd4R/bSCemhITab9S+vITIoSw76ISW3PGzKYJxB89OTl3UgLCjH+vnfPSbnpltux+nhCUE4YmMDzABIWgplU/5S+zj3duCThgh7jmal4CJJUauTk5fbMlP8cHvdvW/BAxgSpIlxIA0NRAZG6l0xi+yd+WML+tj/JUwdxiAqYcYKcydTy4IB8T9eHyTfPCbry4EAoinkkZC7ecpDpufGR6BnguSMNerz7ASnDDBdD98U34EDGBKIEhCDLA8wYujixYIGuHxbgqCMDY8RMAUQUyJ+SUBpd+A8jPAXwWAxylhCX1AVAMXkSUTtOAM4xR/JYRhNxqYrKAS5JSICxCv/9L9CBjIlFAQfrqA9gnA5eIwHlWOuJ19p+E+AsoKJjv478mVywTkgNBPHN/Ib9UAfxuCHafECY/7AKsCwo+CJ6x9LKFnb+fZhgpqQU7JZXGA7dP9mvRiP2StIww7PpUgx8vSLwnoggeyEERIuI+ArKAS5FPJZXUBSr8h5HbV6oePdQIGMiVI0k8VEIAbJpjZZWfYOwhCN3RAdYiTgnwqISAHRPgNRZne9ltdD8aOf3Y/4gMsC0jAjY2NxUomYztMQhhaAJisoBBMEuYnp5IFlH5D7leDXfS5GQwdp8QHOLWASDmTyWXjcEgAKCuoBUH4gz2VrPT7gvAChGGz39yd1VXw4Wv8J8Hlb9JPFBApFTKHHRCG+CBgsoJCkIQwLMz1RwXkBWhfwm+r7nxIeIC/vav9ZAHv2TV4NMvEfABMExSEEOyTB5h88LvvfEgwDyIM/XgBNgDS797ycuV4d1dXtiEETBfkVXj91g0e4G/4PXj4aHVH+Do6lDx+8o0LUBbQBDfKB7qyLkjAfL5lQb6uzk84oB9g4ff0GfEQvgwMJD9Xfoj0QzZKz7NdlhYBXZCERBwcnu6XB5h+t6uryKPoE18vAvP78WVq/7ggAIRg8Q+oIAljQCnIDgrCwcJUnywg57dmaPGHfwtsQ371inzul1JAy+vXZcPzT58SAmpBTTh5gwUUB3gA8ws24Fnwbfb/aYClHwTfPMcRhmD8Ew0UFdSCJLw0sQ0oDjDm4z7IEglsQ+623j8CIhXgRXZ+mHsJmC6I4Aos2BUoC+jX36Om3F/vCHKA6Zd2AaJ/doZLcQUtsWM3AL8nSELmh8n+PllAv/4eiWyGOMDkI6Dy85jf6+XKHxINzAnAVMGzOMGygDi+9cbyIW/HwxvgEfrp/gEw6YegggwAheAVCppf401YeNenJhh+0892ujHBXIEc4Nb9eIAReynjQQdzeY/s4FUnhCJz5VY0If4QQj+sb20nHfN+vSOwAZZ8wo+C7odbcDcbeISAQpDH2MICrugJGZp/9h56KpsBDTD56Kf6pw4wK+j5U15VkKeYhEjk5wUEIP2Mb2Cu2lA75u1sSAM8IuuX7qcqmMkLQQZ4fEETIxY+9IkTbPWrPyJdQ9Z+G84AJ/h0/aQfU+nyGGRnXgtKQhhej95H4IQ438etqsTzbIYzwORLq5/wYwW9hAJQCFpYw0nUr+EE2/jWJV49Dk5wIAPczCfrpwd4+2cZfDDEg4gSpF4j4fXoIQSAPMFDT7dqxKMcgxMcxgCTT6+vfn6jXpw3f9htAWKOgFKQLfSXNL1+gPlG1kDfXPX9fWXHbIYywNTTfMKP/WPuPd+N/tm3HPG0IEpIwqtncYAtfoJxfnF6pR4zMxvKAFOPh1fVT/ePJayggEDkqxghKFpYfsc/xkXHd/7hJ/BpvDue9Y5ABph4ko9+un+ELOEMI50aEIKKEBdgH6/AgamtqtRzvrp94HM8kAFWR1fzif45Hc8wwhFuRfAq/prpgCgg+Lx+snr4gcz8KowBFuVL8kk/RpxhjLAWFC9nrg9PmB8AUb8b4JN6tPNshjHA1BN8rJ/sX9KQO8wNSRe8Aj8EgAOaD25JvU93PoUxIfBTeul8hCPkvVJ0hrkh6YLWvxgP/ZvXfI5HvSiYkAAGOHlw0/jol7j/+EtZbIgQ5BuE+G9tEWD/5emHNd596uS6nbUPP8eDGGDisXzkk/UToSEuwZ4uXoFpJcR/rARg/9Tcs0/3FZ/jIW4Xpbb22xAGWOgJPlU/dYKjS7CnpycnAGUJz5bhd77/8spWta746MfmecZDGGCJB70Uvga6kv8WXYIGeFTIUZDJT67g/Fr5anzHQLaPeN6/TzO/CmCAcefBTuhJPtbum0c4AhRXIMMGDt+aMr3ph9X3j5r9DI/lAx5Tq9U+1TYDGGCaMal82o0p94grUBLafECvfh98yeMb47F9tIMevrGAbRxghaf1EILx/Jaa78GKXYH5lKB+vZNzc6b3CHrSry7aB73YcDOAAdbVS+Gjof4VgMfzqYL54c/Pau8fgU/56fbBzjMz2/4BVtWj3oZneZnvHeAr9QwXe3Z3pvr1Pl+9b3rSjwcYfF/9oMe8aP8Aky6BR8JSqfTG8mU7+EfJAjHXVE0s/iHbm8q38Mij/f7HvF2juxUDUQAOc1Iniwi0Lv3atOFUYWZmZoZLMjNtMkeaia3xXEOndzQr+L8jjR9Y14/dwhZQLGCo5dMBzqr9jaIoTpI0S9MsMziZMWmaRNHfv9byuIDjBYz58udkYd+i21vif06TBczrn2jfairg0/v5pSO52LkBDkN6xqVsyuVypVIpGwPIP1/QRpHjJ6s1mwNz/MBH9VN+qn8Y9gteQL2AlR56B7t6nLikLgTIfizIqThHpzj5OF2qcQrFGe1jvjszLzBtX+En7S5j3jWCL2CJ99nhxUlsx/mxIPHBL/MEMRVnSIqEKPwgmP/2Ob47c/2eiPdPX1/wXd22NfQCvv/Mqx43L6YklDT3CmPGFWRARoThyZqXAyuqfMX3pevAu6MB5/kpvvPNzbtCL2D+jMd69Xo9xhAfA/o3OPP7hzMR9JNGVR+wMK132OqBb34BtZ/ke3m+2dqwLvQCZj7Wiy0g/JhQAsor7Ovh+ITXK9drInvGeKR3/Q7n1VIF1P1D+R5fOnXq1Mb1oRcw8T07bvU4rJfYw358h43fQP0EInd+/263O51OVwLuXkFgVzz83ur996MOLltA+fS9OIU0DwZfwNbv+Je/0RSfKiD49AUWDQQe7Hr9Xq/fHwwl4IHi4cOwAx70cJYs4BNdQC5f0+o1mzu2B17A8PvM5fMF6/4L6O1gXcCx4KvfwBsMBj3KFGAVcg7PXl4aWUAJOK+A716e/2nxkFPhFzC+0vEnknyx2CCygMZrIGYc1ut5GQm/y0/u/GPeDnraWu4ogHf1pIjd+1r5EOCNhZHTBY1UQhcGCYTUisRUkICUbDA2QB37BopjiMFggiEGSEgwoWnalLbt5+j/Ht/BZzrjsaW38BwHpLf96fznP/eaB0HuHwTtDyHmCYhAL7Ws4sEC/j1ml4INbKxg5w6W8oke4yF5BnxdSMlr5slIsMsR2OERLpxc1ivG+r+A/6DPLvyIjwDv9cwd/McV6h4laPv9erkgKSbGp59M/kYMFSH4OgJS5kamJ5KJdAtOPuGvYr8X8MCYwUcXGHOAzRMQfFr5OFkIwi9VQDKZWDo+Pj3ylCfYCsjfIf2W8ETuPul+L+DhNzY/KuBz8kP4BISggy9cxfk/4fx7XSxwMsuJpCjOPZ2MFDvukLnQbjw+mw7d2A5+/V7AAzO/oH8gxPCuOrKeD16PJxUfJ1NYTgvjxPTIyNyT3z0N7UAIvhBuZFrokolUkXtHeukiFrBPBeT66X5tPW1+J8HnyubWn7cLzmRixfRUIh5PJsejJJPJeAJwuOgZeukofV3AyIxzfHU/ELYXyEvUL7u+turORultudBLMpkMfktiMfkHOsS0Q4pYwB4VEHjE91zbv8b8LsyP7Kyt7651EXwXVHoBzCCAIzosWh2vTYgF7FMBn3P/wEd++luspYX5vf3q6prwhXFN8EFQqnbnIz3wgZD50npSqfSjh333Gz4kPaqfZXy5gIuiVzua2NkFXxfB98dBUO/KV9DaZxx7WvFSYeR3fxcwMkZ6+vjqfqSH7tVOTk6q2d0wXQU3giBY6eaH8PBy/bTeIenwBwu4v/npkKdWLx/x8RuYFy292n59FX7dBd8FpSC33DufEqS7SlsvDTsEC7i/GRhkPro5Ex+PL0b3tFarid/ObjtOwc0PAui6x3Tj08ZWZWoKC7jPefDYwKP2GdMr5Wuchn418Ts7O3MJ8hFYKpWOy735MR/Prla9qTBYwP3OIOvBz2zfPeAC+ADYmMieIb0IbohfUKr3wqdiKR/hIYmHHvgNnLfoaGwNvhZhuDga4APgUPYCfiah/QgUwVysu1/4Yb4ilw96KrOP+r+AcYnmI4/0uH3Iwl7jsqEEQ78LCCJdBM8OAIhD0OXnah/pgW92Cgu475mBl2XvcvvAdyl8CrA2If27kPQmuPmxFKZStfsZ9eP2qb3B3UM8WMC4wyg1U4/Pvr1Pny5RwBbgfvbqIkovghsV6Z8Irrj9bPUL9RDSQ7CA+59BOx70FlX9FuY/f7q8pAbu71xFgFRCh+AG/IIgv+0a35agzqf8WA/BAu5/HpwTHelx+14In/QPDYRfY78e+rUNuwq+KyHBcbWzH/h0P9DZ+J49ivuwgLFCxMvEo9cui/N7wocC3k9wVfAMQofg2kEpykrGuT749DOG917v2bPZhAcLGBmzFY+uzbI7vnyJANURWBu6uL5qBYTdBTe3FCDvYfazjK/ON0t88uPFAsZTiAZHhOCTe7PwAZAauJ+FHxHaBek55K0CrNTd/ePly+1jPQkWsAcZGH5jwtFXlvN75CeBX6NOfiBkQa4gL+EoQa5IgLb+EZ/E5AuDBexFZjrYITK98NML2JABvgYhl5BXiSm4ofz4edjsH4+vyQc9BAvYkwk26Jagh/p9Fj8RZEDJ/s51K51KyEPMS1hVMObsH29fjU9lNIEF7MsObrnhA7oID/VjvzZg9epapTdBAsQaKTv6F41v2vRDAQE4igXsR8YEDW5Mh6B+yP8XMNu8bqe7IN9i6CbD/SM+c3y5fuAb9WUB40VM5LbEeJIXexofA1aJT2+hvkkY8AyAXMEMYpx/RWN8eXeAb5QWsAdfJpEaJRpfhCcYJ2Cz2dQJuYT2Cm7eQI4qaPezH3/EJ8EC9iWDhEaZh5y9gENXzVZ6F1TvYriC937y0c+/dCe/UQQL2JuMMZv6Iw2un1HA0zr07IQsyIC4R3NyMVog5Gf0j5dvmDgWsF9HINjUR/6RH+6AxgqhmIKIIYgvRCjH1YIqoPX+R36zWv/iWMAeHYHAg2EUGl/bHeZ0qKmHBIlQH2J6EEHkP/LbGfsFxuwf8WEBewUINySq4KI+vsZjcKP+VWISsqBZQQDqqceMAjr6Bzy/FjAyptyivML4ugp4ugM9RuwmCEBdrxLukYztADT8uH9xLGCfMvNSj+6H+rEfjkCxY0MW5EXiAkRyRfUG2rhA2/3iWMBeZeCx7oeHD2cBGxOb4vY1QmRCt6AAVir6GN/KENsLaPp5toDp6yTSo/VBfOQHwKEm8IDIhJqgAbjaAtQM/3JQ7ngAzkJQu77wAvboTYIce+oDPzcgvotD/YAIw94EFSAZHt/mtmPOAvL+8G4BI4P0P1Qu7Zl8pp8I7rQFm1ZBDDHvEW4gEd5+WymaBeQB5v6NVv/6K/8AX933D9cX5wEIQHwfJ27UQhCSoPUyyICSCPB7nQqYQmx+ECzn//Z370Z45pXKgtE/5UcFRGqntaosEiJkQfsQ0wgTYeXD94PqsrWA5gGYzP34cfuPnz0DPHf4fdH9JJEf/qiIBTHMiL2CaGDFInh79z1fhqDzAIyHPytbYTwTHDh39c8cYACGOZkQQSY0BbmCAIQZI4aAkaClgLRA4HezhfzzXz4BPngc+X02+DoOcBSsEiJkQTXEBLi+cVxB2FBm+O7uLrcdTbBrgOvfIsCbf//HI8CfD9mPYvgRYGh4cnKCVaILOiq4FgGCkCsoHYSgWUD2qx7cSLYQn1bJT4dWP9h18gMfQqtELG2CBPj+Lcx0QgCGHeQj0LKCy/mbVsIK3ni0SoYPyY/KZ+0fAj8IHh0d6auEBc098v6jvkDUDP8XgmVzgqmAyRz0FKFHgsNv/se+vbC0kfZRAG+5vPAi13xFodBP836GQpEiAiEvjLKdpeJ23KZFhIVdEuutGWvU0XS3rk2zxmWfOT7qMXOSP6MzmQVy9sqtwI/zf05iacbP85l+EKQpoSuWFWy0QiXYOkzTXVphQL5gDMjW1tY9wa2Kp4QB2Y/bBz746QP+CaEpgaCuIAB/AxkR+hs+RJbe4A2UE7K+7QCJkKakckB8fsnpt0aARzQl4oipghurHpAEccPd6xyvPx9TwPVV+N0X3KpySriBqR/koOf/EX5Ixu/EhaYEgrQjDPiBAFmw1b3Jwop8At8sQQ+p8iHUgD8CD4ago/oJP1rga7+0gwmmhP10BV8HoRAMIlQQHVxyJbzfQAzw9vY2Cfqka/wvEJz/xdtBD/+2/LiAaODR0b0pEUvsAUmOBX0FQbiwMvJzQDfA25+2XWQJO3H1gIxH9bP9UED4nZw+PeMlzu4IABdDKRi0Vo+Pbwl7L68Jvd//nr38lIYJuYMVTwkA2Y74tB9PMPxSwS8vntR+fztyxdkbXoykYBA0jxGvuPRy5bkHTAfkE6JKiA5WOiUAtPjIz/PxgqCAf7ifE899fSt2hL/OvcInaSXY6sIP6R53D88X1q8N0wEGny4hxpinpHJA0iM/44CP/vwPfqmPF+QnKvhDozkGMGyenx+TYdd9rl5Yf7PyzA2w+4TIhOKMIVg9IOMxn/LjAz46+eZ/o3suhiAI5YxsrIbjKnh8jhDiodvkhYXUjwVdsoLVfSsBIMkRn+FHB/xt/slN4jPyywKqGUZQQZ+7GqZFTMOEStAFU1IVIMBIkf2Yj/3ogE+fPrkNTQkER3d4MbQqyIZdIApC8RBiSqoE1HymHwaYgymRFQTgslHBUUJbkL+VVAzIeswn/BD4YYA5mBJ+BRmw8f9wnGDrvHcuDJmQz9gWrAjwve1HBcQAjya+SP3EJxmxIlzBnosm5BJKQf69kioB3xOf7eeCAabQlIgblivCFUQ0oT5jFsSUVAXIdJIPfgj7YYA5PCXyhhejCRXs9wQhl9AS3Jv6lADwvdaz/U54gDNT8qsA/CC+i1AFIYjYJYQgP4MIHsJKAd9JPvhZAzwyJZiR0RturIZWBTOEOQT3IFgd4DvBh/qJ948GWATfSlQFX4cTKvidBXsPEpzyD7gASHJm/eDnAXmA5ZTkeAQBGDT7fUfYn0TIgvIZ3NvDlFQOuEb1E35igNWU0A17QP0IesHo+6DvYpfQA2rBaU4JAGX5qH7CTwywnhKqoPVJEF/o+te5a6EhKI7YBQ9hhYBrXD/hpwdYT8ko4KvXUTQeMGoORgnlFbOgqOAmBCsCXBN8vB88wHbii+zX4UmCrd5gMJhAyBXUggDc3OzEFQAyXmpHfLy/PMBG5tyUEKD/oWoEQgkYNB2gJ4SeLbglBac0JQAkOdIDn/AT34CNKWnQijhBd8MTBN2ODKiEpqA+4k2XqUwJANcEHwiZj/2MAc5MSYMBccMuGjB0OzJAbEHjiPd29muVAP7MfFy/Gz9rgMWUZG4YghIwbA58IGhf8dgKYoynDAg81uP63fiZAyy+lRAgblgCIv6IqYRa0K4gpmRqgNCCnuTD+cLPHmD5rYQAccNjK4gj1oL2EXMFXZaXy54SAELOK0o+Ol97gHVqfzU2bgAbq6EW9IBB83LAhLagriAES54SAJKb5KPztQd4wpR4QNzweEAc8SUIbUG7gsvlPoQANPR8/eBnDLAxJX6G3fdhQ7BlCdoVtAVLA4Se5nMD/Ig/rBtfeMCNiTeMIx5cgnBkjB9SQZdyp2T+VOgxH/kZ34DtbyWpIP68g884wLB5aQvaFfSA5U4JANlO86V+9gDbU5IC4qPgREAcMQsaR4wK6htGSpsSADKZ5kP9XOwBtqckBUx/JGMJ9qVgjgoyYISHsFRAmy9J7AG2BT9epIBv9wxAPIMuPCS6gvDTFSTAEIJTA4TeLZ/3O8IAP1owTgU/cAU1IJ5BFszxCmZvOIqiTjwlwBPSIz4McCGCZ+mMLFuAQVs/g7qC5g27YEpKBjwhPeZL7G/AuabkFX+S0YA8JHYFjRuGYFjOlADQk/n/Yz74FTDAnP9+bUyuYIDwkNgVtG84Ctv7tTIbCDvW83yJPcD5v5UYFUTq/HnarqB5wxAsAfAkm6O0fMSHAS5WcDEyAYN2kyvoQoLihm3AMOzE5QFqPQQDXGjis9XQBAwiEoRfzhvOAgaYktIAgQc94kuSUwxwsantt7iCGhBTLF9B3HAOQAjil8eUFA3ozfz/QO2OL8EAF565z50dCxBTzII5bhiAooIBHsIiAQHnv26QHpK4fHlRxvqDcH/HAoQgV/Cxj2AAwYIBEcYjvmGCAS6PUAkGQlAAyhu2AYN6Jy4DMElDkuAb8gCXQRgTIQGyYF/fsPkIakAIYkqKAoQU0ZHeMEkwwKUS1vYPIgFIgoNL44ZzzHAIwDqmpCBA0Gm9ZIgBLju13U57LGA9aLf6OR5Bc4avBfEQFnXCbMd6yRADPA1CPIYSEB+o+/xZWn8StGeYGliUIAAJDngu+G+ZA6weQ9QwO8PoS5MeQbEi5gwzIFJ36cTFALLdLR4aOMQAT43Q1fCgnQWse0FekcfOMAQxJQUAgs3bkZ4LBniqgSHxUQf7aobzA1IDMSVFAFIF8Rf4kiEGeMqZm0t72NkZ9Qvq6ZJgRfoFANY9IB7CRwNCjeyQZIgBria1eHf/YKft8XxhAggC0P4cYzcwKEqQGzhEIHlFA1wRomvinSIEe4O8HwStBmJKinoDYXcbDHClmYPi7u5+p3NwsLPTbrdb31WaIq1mS6WtYk+JfcL4myCvhsO/aYArdnTvYi2O489lJS6mgYR3lYgBrlix8hiAgMPfSfpve4BnIUCUjhVzDfAMEHL4y/vlG+AZ4C2cd8w5wDNAxhsO8w7wDPDudoF49aABnr2Bji6NG+D5GUo+QMClhvhnNsD5AdFAn9kAPwCQ8097dUgAAAwEMcy/2mPDE1H4iYSSGnALaMAtYBqwgHHAArYBC7g0YAEXBixgGbCAfcAChgELGAcsYB+wgGXAAsYBC9gGLODagAV8bcACHh4wAAAAAMAHk2fBeUo9XxUAAAAASUVORK5CYII=;" vertex="1" parent="jZVaUwOg5UY3L9NAnvdq-71">
          <mxGeometry x="1077" y="530" width="100" height="100" as="geometry" />
        </mxCell>
        <mxCell id="1CcSn6TsTYNcUzMV3FvQ-43" style="edgeStyle=orthogonalEdgeStyle;rounded=0;orthogonalLoop=1;jettySize=auto;html=1;" edge="1" parent="jZVaUwOg5UY3L9NAnvdq-71" source="1CcSn6TsTYNcUzMV3FvQ-45" target="1CcSn6TsTYNcUzMV3FvQ-48">
          <mxGeometry relative="1" as="geometry" />
        </mxCell>
        <mxCell id="1CcSn6TsTYNcUzMV3FvQ-44" style="edgeStyle=orthogonalEdgeStyle;rounded=0;orthogonalLoop=1;jettySize=auto;html=1;" edge="1" parent="jZVaUwOg5UY3L9NAnvdq-71" source="1CcSn6TsTYNcUzMV3FvQ-45" target="1CcSn6TsTYNcUzMV3FvQ-47">
          <mxGeometry relative="1" as="geometry" />
        </mxCell>
        <mxCell id="1CcSn6TsTYNcUzMV3FvQ-49" style="edgeStyle=orthogonalEdgeStyle;rounded=0;orthogonalLoop=1;jettySize=auto;html=1;entryX=0;entryY=0.5;entryDx=0;entryDy=0;entryPerimeter=0;startArrow=classic;startFill=1;" edge="1" parent="jZVaUwOg5UY3L9NAnvdq-71" source="1CcSn6TsTYNcUzMV3FvQ-45" target="1CcSn6TsTYNcUzMV3FvQ-46">
          <mxGeometry relative="1" as="geometry" />
        </mxCell>
        <mxCell id="-QjtrjUzRDEMRZ5MF8oH-28" value="4" style="rounded=1;whiteSpace=wrap;html=1;fillColor=#007CBD;strokeColor=none;fontColor=#FFFFFF;fontStyle=1;fontSize=22;labelBackgroundColor=none;" parent="jZVaUwOg5UY3L9NAnvdq-71" vertex="1">
          <mxGeometry x="607" y="75" width="40" height="38" as="geometry" />
        </mxCell>
        <mxCell id="jZVaUwOg5UY3L9NAnvdq-108" value="9" style="rounded=1;whiteSpace=wrap;html=1;fillColor=#007CBD;strokeColor=none;fontColor=#FFFFFF;fontStyle=1;fontSize=22;labelBackgroundColor=none;" parent="jZVaUwOg5UY3L9NAnvdq-71" vertex="1">
          <mxGeometry x="1097" y="472" width="40" height="38" as="geometry" />
        </mxCell>
        <mxCell id="1CcSn6TsTYNcUzMV3FvQ-54" value="" style="endArrow=classic;html=1;rounded=0;entryX=0;entryY=0.5;entryDx=0;entryDy=0;" edge="1" parent="jZVaUwOg5UY3L9NAnvdq-71" source="jZVaUwOg5UY3L9NAnvdq-190" target="1CcSn6TsTYNcUzMV3FvQ-45">
          <mxGeometry width="50" height="50" relative="1" as="geometry">
            <mxPoint x="977" y="385" as="sourcePoint" />
            <mxPoint x="1027" y="335" as="targetPoint" />
            <Array as="points">
              <mxPoint x="1057" y="546" />
            </Array>
          </mxGeometry>
        </mxCell>
        <mxCell id="jZVaUwOg5UY3L9NAnvdq-188" value="" style="group" parent="jZVaUwOg5UY3L9NAnvdq-71" vertex="1" connectable="0">
          <mxGeometry x="1037" y="525" width="21" height="26" as="geometry" />
        </mxCell>
        <mxCell id="jZVaUwOg5UY3L9NAnvdq-189" value="" style="rounded=0;whiteSpace=wrap;html=1;labelBackgroundColor=#ffffff;fontSize=14;align=center;strokeColor=none;" parent="jZVaUwOg5UY3L9NAnvdq-188" vertex="1">
          <mxGeometry width="21" height="26" as="geometry" />
        </mxCell>
        <mxCell id="jZVaUwOg5UY3L9NAnvdq-190" value="" style="outlineConnect=0;fontColor=#232F3E;gradientColor=none;fillColor=#B3B3B3;strokeColor=none;dashed=0;verticalLabelPosition=bottom;verticalAlign=top;align=center;html=1;fontSize=12;fontStyle=0;aspect=fixed;pointerEvents=1;shape=mxgraph.aws4.encrypted_data;labelBackgroundColor=#ffffff;" parent="jZVaUwOg5UY3L9NAnvdq-188" vertex="1">
          <mxGeometry width="21" height="26" as="geometry" />
        </mxCell>
        <mxCell id="jZVaUwOg5UY3L9NAnvdq-110" style="edgeStyle=elbowEdgeStyle;rounded=0;orthogonalLoop=1;jettySize=auto;html=1;endArrow=open;endFill=0;strokeColor=#545B64;strokeWidth=2;fontSize=14;" parent="1" edge="1">
          <mxGeometry relative="1" as="geometry">
            <mxPoint x="240" y="418" as="sourcePoint" />
            <mxPoint x="472" y="418" as="targetPoint" />
          </mxGeometry>
        </mxCell>
        <mxCell id="-QjtrjUzRDEMRZ5MF8oH-46" value="" style="rounded=0;whiteSpace=wrap;html=1;fillColor=#EAEDED;fontSize=22;fontColor=#FFFFFF;strokeColor=none;labelBackgroundColor=none;" parent="1" vertex="1">
          <mxGeometry x="1620" y="26.5" width="539" height="1080" as="geometry" />
        </mxCell>
        <mxCell id="-QjtrjUzRDEMRZ5MF8oH-36" value="1" style="rounded=1;whiteSpace=wrap;html=1;fillColor=#007CBD;strokeColor=none;fontColor=#FFFFFF;fontStyle=1;fontSize=22;labelBackgroundColor=none;" parent="1" vertex="1">
          <mxGeometry x="1638.5" y="39" width="40" height="38" as="geometry" />
        </mxCell>
        <mxCell id="-QjtrjUzRDEMRZ5MF8oH-37" value="2" style="rounded=1;whiteSpace=wrap;html=1;fillColor=#007CBD;strokeColor=none;fontColor=#FFFFFF;fontStyle=1;fontSize=22;labelBackgroundColor=none;" parent="1" vertex="1">
          <mxGeometry x="1637" y="161" width="40" height="38" as="geometry" />
        </mxCell>
        <mxCell id="-QjtrjUzRDEMRZ5MF8oH-38" value="3" style="rounded=1;whiteSpace=wrap;html=1;fillColor=#007CBD;strokeColor=none;fontColor=#FFFFFF;fontStyle=1;fontSize=22;labelBackgroundColor=none;" parent="1" vertex="1">
          <mxGeometry x="1637" y="241.5" width="40" height="38" as="geometry" />
        </mxCell>
        <mxCell id="-QjtrjUzRDEMRZ5MF8oH-39" value="4" style="rounded=1;whiteSpace=wrap;html=1;fillColor=#007CBD;strokeColor=none;fontColor=#FFFFFF;fontStyle=1;fontSize=22;labelBackgroundColor=none;" parent="1" vertex="1">
          <mxGeometry x="1637" y="358.5" width="40" height="38" as="geometry" />
        </mxCell>
        <mxCell id="-QjtrjUzRDEMRZ5MF8oH-40" value="5" style="rounded=1;whiteSpace=wrap;html=1;fillColor=#007CBD;strokeColor=none;fontColor=#FFFFFF;fontStyle=1;fontSize=22;labelBackgroundColor=none;" parent="1" vertex="1">
          <mxGeometry x="1637" y="466.5" width="40" height="38" as="geometry" />
        </mxCell>
        <mxCell id="-QjtrjUzRDEMRZ5MF8oH-41" value="6" style="rounded=1;whiteSpace=wrap;html=1;fillColor=#007CBD;strokeColor=none;fontColor=#FFFFFF;fontStyle=1;fontSize=22;labelBackgroundColor=none;" parent="1" vertex="1">
          <mxGeometry x="1637" y="568.5" width="40" height="38" as="geometry" />
        </mxCell>
        <mxCell id="-QjtrjUzRDEMRZ5MF8oH-42" value="7" style="rounded=1;whiteSpace=wrap;html=1;fillColor=#007CBD;strokeColor=none;fontColor=#FFFFFF;fontStyle=1;fontSize=22;labelBackgroundColor=none;" parent="1" vertex="1">
          <mxGeometry x="1637" y="676.5" width="40" height="38" as="geometry" />
        </mxCell>
        <mxCell id="-QjtrjUzRDEMRZ5MF8oH-43" value="8" style="rounded=1;whiteSpace=wrap;html=1;fillColor=#007CBD;strokeColor=none;fontColor=#FFFFFF;fontStyle=1;fontSize=22;labelBackgroundColor=none;" parent="1" vertex="1">
          <mxGeometry x="1630" y="806.5" width="40" height="38" as="geometry" />
        </mxCell>
        <mxCell id="-QjtrjUzRDEMRZ5MF8oH-44" value="9" style="rounded=1;whiteSpace=wrap;html=1;fillColor=#007CBD;strokeColor=none;fontColor=#FFFFFF;fontStyle=1;fontSize=22;labelBackgroundColor=none;" parent="1" vertex="1">
          <mxGeometry x="1637" y="930.5" width="40" height="38" as="geometry" />
        </mxCell>
        <mxCell id="-QjtrjUzRDEMRZ5MF8oH-47" value="Arquitetura nível de Contêineres" style="text;html=1;resizable=0;points=[];autosize=1;align=left;verticalAlign=top;spacingTop=-4;fontSize=30;fontStyle=1;labelBackgroundColor=none;" parent="1" vertex="1">
          <mxGeometry x="36.5" y="26.5" width="450" height="40" as="geometry" />
        </mxCell>
        <mxCell id="-QjtrjUzRDEMRZ5MF8oH-48" value="Principais serviços e suas interações" style="text;html=1;resizable=0;points=[];autosize=1;align=left;verticalAlign=top;spacingTop=-4;fontSize=16;labelBackgroundColor=none;" parent="1" vertex="1">
          <mxGeometry x="36.5" y="76.5" width="290" height="30" as="geometry" />
        </mxCell>
        <mxCell id="SCVMTBWpLvtzJIhz15lM-1" value="" style="line;strokeWidth=2;html=1;fontSize=14;labelBackgroundColor=none;" parent="1" vertex="1">
          <mxGeometry x="32.5" y="101.5" width="1060" height="10" as="geometry" />
        </mxCell>
        <mxCell id="SCVMTBWpLvtzJIhz15lM-6" value="A aplicação mobile é desenvolvida em &lt;strong data-end=&quot;53&quot; data-start=&quot;37&quot;&gt;React Native&lt;/strong&gt; e se comunica com o backend de forma segura por meio de &lt;strong data-end=&quot;119&quot; data-start=&quot;110&quot;&gt;HTTPS&lt;/strong&gt;. A autenticação é feita usando &lt;strong data-end=&quot;164&quot; data-start=&quot;151&quot;&gt;OAuth 2.0&lt;/strong&gt; com &lt;strong data-end=&quot;176&quot; data-start=&quot;169&quot;&gt;JWT&lt;/strong&gt;, integrada à plataforma &lt;strong data-end=&quot;209&quot; data-start=&quot;201&quot;&gt;Okta&lt;/strong&gt;, garantindo controle de acesso, segurança de dados e suporte a funcionalidades como SSO e autenticação multifator." style="text;html=1;align=left;verticalAlign=top;spacingTop=-4;fontSize=14;labelBackgroundColor=none;whiteSpace=wrap;" parent="1" vertex="1">
          <mxGeometry x="1690" y="38.5" width="449" height="118" as="geometry" />
        </mxCell>
        <mxCell id="SCVMTBWpLvtzJIhz15lM-7" value="O Elastic Load Balancer (ELB) distribui automaticamente o tráfego entre as instâncias do Amazon EKS. Garante que nenhum serviço seja sobrecarregado, promovendo estabilidade e desempenho.Funciona em conjunto com o Kubernetes para rotear requisições de forma eficiente. Contribui para alta disponibilidade e escalabilidade da aplicação." style="text;html=1;align=left;verticalAlign=top;spacingTop=-4;fontSize=14;labelBackgroundColor=none;whiteSpace=wrap;" parent="1" vertex="1">
          <mxGeometry x="1689" y="131.5" width="450" height="115" as="geometry" />
        </mxCell>
        <mxCell id="SCVMTBWpLvtzJIhz15lM-9" value="O &lt;strong data-end=&quot;88&quot; data-start=&quot;74&quot;&gt;Amazon ECR&lt;/strong&gt; armazena as imagens Docker do backend em &lt;strong data-end=&quot;141&quot; data-start=&quot;130&quot;&gt;Node.js&lt;/strong&gt;. Essas imagens são geradas automaticamente pelo pipeline de &lt;strong data-end=&quot;213&quot; data-start=&quot;204&quot;&gt;CI/CD&lt;/strong&gt;, acionado a cada mudança nas principais branches do fluxo &lt;strong data-end=&quot;285&quot; data-start=&quot;274&quot;&gt;Gitflow&lt;/strong&gt;.Com isso, novas versões do backend são construídas e publicadas de forma contínua, garantindo atualizações rápidas, seguras e rastreáveis." style="text;html=1;align=left;verticalAlign=top;spacingTop=-4;fontSize=14;labelBackgroundColor=none;whiteSpace=wrap;" parent="1" vertex="1">
          <mxGeometry x="1690" y="241.5" width="450" height="117" as="geometry" />
        </mxCell>
        <mxCell id="SCVMTBWpLvtzJIhz15lM-10" value="O &lt;strong data-end=&quot;74&quot; data-start=&quot;60&quot;&gt;Amazon EKS&lt;/strong&gt; é um serviço gerenciado que facilita a execução do &lt;strong data-end=&quot;140&quot; data-start=&quot;126&quot;&gt;Kubernetes&lt;/strong&gt; na AWS. Ele automatiza tarefas como provisionamento, escalonamento e atualização do cluster. Garante a &lt;strong data-end=&quot;277&quot; data-start=&quot;248&quot;&gt;escalabilidade horizontal&lt;/strong&gt; das aplicações, distribuindo cargas entre múltiplos pods.Com isso, aplicações se tornam mais resilientes, performáticas e fáceis de manter." style="text;html=1;align=left;verticalAlign=top;spacingTop=-4;fontSize=14;labelBackgroundColor=none;whiteSpace=wrap;" parent="1" vertex="1">
          <mxGeometry x="1689" y="358.5" width="450" height="121" as="geometry" />
        </mxCell>
        <mxCell id="SCVMTBWpLvtzJIhz15lM-11" value="O &lt;strong data-end=&quot;85&quot; data-start=&quot;70&quot;&gt;NAT Gateway&lt;/strong&gt; permite que recursos privados, como a &lt;strong data-end=&quot;131&quot; data-start=&quot;124&quot;&gt;API&lt;/strong&gt; e o &lt;strong data-end=&quot;143&quot; data-start=&quot;136&quot;&gt;EKS&lt;/strong&gt;,&lt;br data-end=&quot;147&quot; data-start=&quot;144&quot;&gt;acessem a internet &lt;strong data-end=&quot;188&quot; data-start=&quot;166&quot;&gt;somente para saída&lt;/strong&gt;, mantendo-os protegidos de acessos externos diretos. Com isso, a API consegue se comunicar com serviços públicos, como o orquestrador &lt;strong data-end=&quot;336&quot; data-start=&quot;325&quot;&gt;Airflow&lt;/strong&gt;, sem expor sua infraestrutura interna." style="text;html=1;align=left;verticalAlign=top;spacingTop=-4;fontSize=14;labelBackgroundColor=none;whiteSpace=wrap;" parent="1" vertex="1">
          <mxGeometry x="1683" y="466.5" width="449" height="114" as="geometry" />
        </mxCell>
        <mxCell id="SCVMTBWpLvtzJIhz15lM-12" value="Os &lt;strong data-end=&quot;89&quot; data-start=&quot;63&quot;&gt;grupos de Auto Scaling&lt;/strong&gt; permitem que as aplicações sejam &lt;strong data-end=&quot;152&quot; data-start=&quot;123&quot;&gt;escaladas automaticamente&lt;/strong&gt;, ajustando a quantidade de instâncias conforme a demanda. Embora o foco principal seja a &lt;strong data-end=&quot;275&quot; data-start=&quot;246&quot;&gt;escalabilidade horizontal&lt;/strong&gt; (mais instâncias), também é possível ajustar o &lt;strong data-end=&quot;351&quot; data-start=&quot;325&quot;&gt;tamanho das instâncias&lt;/strong&gt; para ganhos de &lt;strong data-end=&quot;386&quot; data-start=&quot;367&quot;&gt;escala vertical&lt;/strong&gt;, otimizando desempenho e custo conforme necessário." style="text;html=1;align=left;verticalAlign=top;spacingTop=-4;fontSize=14;labelBackgroundColor=none;whiteSpace=wrap;" parent="1" vertex="1">
          <mxGeometry x="1683" y="568.5" width="450" height="118" as="geometry" />
        </mxCell>
        <mxCell id="SCVMTBWpLvtzJIhz15lM-13" value="No &lt;strong data-end=&quot;82&quot; data-start=&quot;68&quot;&gt;Amazon EKS&lt;/strong&gt;, o &lt;strong data-end=&quot;103&quot; data-start=&quot;86&quot;&gt;control plane&lt;/strong&gt; é gerenciado pela AWS.&amp;nbsp;Ele é responsável por componentes essenciais do Kubernetes, como o &lt;strong data-end=&quot;210&quot; data-start=&quot;196&quot;&gt;API Server&lt;/strong&gt;, &lt;strong data-end=&quot;220&quot; data-start=&quot;212&quot;&gt;etcd&lt;/strong&gt;, &lt;strong data-end=&quot;235&quot; data-start=&quot;222&quot;&gt;scheduler&lt;/strong&gt; e &lt;strong data-end=&quot;260&quot; data-start=&quot;238&quot;&gt;controller manager&lt;/strong&gt;. A AWS cuida da alta disponibilidade, segurança e escalabilidade desse plano de controle.&lt;br data-end=&quot;355&quot; data-start=&quot;352&quot;&gt;Isso permite que os desenvolvedores se concentrem apenas nos &lt;strong data-end=&quot;435&quot; data-start=&quot;416&quot;&gt;nós de trabalho&lt;/strong&gt; (worker nodes). Com isso, o EKS simplifica a operação de clusters Kubernetes em produção." style="text;html=1;align=left;verticalAlign=top;spacingTop=-4;fontSize=14;labelBackgroundColor=none;whiteSpace=wrap;" parent="1" vertex="1">
          <mxGeometry x="1691" y="676.5" width="449" height="113" as="geometry" />
        </mxCell>
        <mxCell id="SCVMTBWpLvtzJIhz15lM-14" value="No &lt;strong data-end=&quot;84&quot; data-start=&quot;70&quot;&gt;Amazon EKS&lt;/strong&gt;, os &lt;strong data-end=&quot;98&quot; data-start=&quot;89&quot;&gt;nodes&lt;/strong&gt; são as instâncias (EC2 ou Fargate) que executam os &lt;strong data-end=&quot;158&quot; data-start=&quot;150&quot;&gt;pods&lt;/strong&gt; do Kubernetes. Eles compõem o &lt;strong data-end=&quot;209&quot; data-start=&quot;191&quot;&gt;plano de dados&lt;/strong&gt; do cluster e são responsáveis por rodar as aplicações. Os nodes se conectam ao &lt;strong data-end=&quot;328&quot; data-start=&quot;291&quot;&gt;control plane gerenciado pela AWS&lt;/strong&gt;, que orquestra as cargas de trabalho. Podem ser escalados automaticamente por meio de &lt;strong data-end=&quot;440&quot; data-start=&quot;417&quot;&gt;Auto Scaling Groups&lt;/strong&gt;." style="text;html=1;align=left;verticalAlign=top;spacingTop=-4;fontSize=14;labelBackgroundColor=none;whiteSpace=wrap;" parent="1" vertex="1">
          <mxGeometry x="1684" y="806.5" width="449" height="124" as="geometry" />
        </mxCell>
        <mxCell id="SCVMTBWpLvtzJIhz15lM-15" value="&lt;div&gt;O &lt;strong data-end=&quot;97&quot; data-start=&quot;77&quot;&gt;Internet Gateway&lt;/strong&gt; permite &lt;strong data-end=&quot;135&quot; data-start=&quot;106&quot;&gt;acesso de entrada e saída&lt;/strong&gt; para o orquestrador &lt;strong data-end=&quot;167&quot; data-start=&quot;156&quot;&gt;Airflow&amp;nbsp;&lt;/strong&gt;e os serviços que ele coordena, como &lt;strong data-end=&quot;219&quot; data-start=&quot;207&quot;&gt;Redshift&lt;/strong&gt;, &lt;strong data-end=&quot;227&quot; data-start=&quot;221&quot;&gt;S3&lt;/strong&gt;, &lt;strong data-end=&quot;242&quot; data-start=&quot;229&quot;&gt;SageMaker&lt;/strong&gt; e até recursos externos, como &lt;strong data-end=&quot;282&quot; data-start=&quot;275&quot;&gt;OCI&lt;/strong&gt; em outra nuvem. Ele conecta a VPC à internet pública, viabilizando comunicações externas seguras. É essencial para fluxos de trabalho distribuídos e integrações multicloud.&lt;span&gt;&lt;/span&gt;&lt;/div&gt;" style="text;html=1;align=left;verticalAlign=top;spacingTop=-4;fontSize=14;labelBackgroundColor=none;whiteSpace=wrap;" parent="1" vertex="1">
          <mxGeometry x="1690" y="930.5" width="448" height="115" as="geometry" />
        </mxCell>
        <mxCell id="jZVaUwOg5UY3L9NAnvdq-59" value="Actors" style="swimlane;fontSize=14;align=center;swimlaneFillColor=#f4f4f4;fillColor=#f4f4f4;startSize=33;container=1;pointerEvents=0;collapsible=0;recursiveResize=0;" parent="1" vertex="1">
          <mxGeometry x="30" y="125" width="210" height="177" as="geometry" />
        </mxCell>
        <mxCell id="jZVaUwOg5UY3L9NAnvdq-60" value="User" style="outlineConnect=0;fontColor=#232F3E;gradientColor=none;fillColor=#232F3E;strokeColor=none;dashed=0;verticalLabelPosition=bottom;verticalAlign=top;align=center;html=1;fontSize=12;fontStyle=0;aspect=fixed;pointerEvents=1;shape=mxgraph.aws4.user;labelBackgroundColor=none;" parent="jZVaUwOg5UY3L9NAnvdq-59" vertex="1">
          <mxGeometry x="16" y="54" width="78" height="78" as="geometry" />
        </mxCell>
        <mxCell id="jZVaUwOg5UY3L9NAnvdq-61" value="Payers" style="outlineConnect=0;fontColor=#232F3E;gradientColor=none;fillColor=#232F3E;strokeColor=none;dashed=0;verticalLabelPosition=bottom;verticalAlign=top;align=center;html=1;fontSize=12;fontStyle=0;aspect=fixed;pointerEvents=1;shape=mxgraph.aws4.corporate_data_center;labelBackgroundColor=none;" parent="jZVaUwOg5UY3L9NAnvdq-59" vertex="1">
          <mxGeometry x="130" y="54" width="53" height="78" as="geometry" />
        </mxCell>
        <mxCell id="jZVaUwOg5UY3L9NAnvdq-62" value="Channels" style="swimlane;fontSize=14;align=center;swimlaneFillColor=#f4f4f4;fillColor=#f4f4f4;startSize=33;container=1;pointerEvents=0;collapsible=0;recursiveResize=0;" parent="1" vertex="1">
          <mxGeometry x="30" y="302" width="210" height="580" as="geometry" />
        </mxCell>
        <mxCell id="jZVaUwOg5UY3L9NAnvdq-65" value="Mobile" style="outlineConnect=0;fontColor=#232F3E;gradientColor=none;strokeColor=none;fillColor=#277116;dashed=0;verticalLabelPosition=bottom;verticalAlign=top;align=center;html=1;fontSize=12;fontStyle=0;shape=mxgraph.aws4.mobile_client;labelBackgroundColor=none;" parent="jZVaUwOg5UY3L9NAnvdq-62" vertex="1">
          <mxGeometry x="67.5" y="57.5" width="53" height="102.5" as="geometry" />
        </mxCell>
        <mxCell id="jZVaUwOg5UY3L9NAnvdq-101" value="1" style="rounded=1;whiteSpace=wrap;html=1;fillColor=#007CBD;strokeColor=none;fontColor=#FFFFFF;fontStyle=1;fontSize=22;labelBackgroundColor=none;" parent="jZVaUwOg5UY3L9NAnvdq-62" vertex="1">
          <mxGeometry x="143" y="61" width="40" height="38" as="geometry" />
        </mxCell>
        <mxCell id="jZVaUwOg5UY3L9NAnvdq-106" value="7" style="rounded=1;whiteSpace=wrap;html=1;fillColor=#007CBD;strokeColor=none;fontColor=#FFFFFF;fontStyle=1;fontSize=22;labelBackgroundColor=none;" parent="1" vertex="1">
          <mxGeometry x="710" y="600" width="40" height="38" as="geometry" />
        </mxCell>
        <mxCell id="jZVaUwOg5UY3L9NAnvdq-170" value="" style="group" parent="1" vertex="1" connectable="0">
          <mxGeometry x="253.00000000000006" y="439.5" width="21" height="26" as="geometry" />
        </mxCell>
        <mxCell id="jZVaUwOg5UY3L9NAnvdq-171" value="" style="rounded=0;whiteSpace=wrap;html=1;labelBackgroundColor=#ffffff;fontSize=14;align=center;strokeColor=none;" parent="jZVaUwOg5UY3L9NAnvdq-170" vertex="1">
          <mxGeometry width="21" height="26" as="geometry" />
        </mxCell>
        <mxCell id="jZVaUwOg5UY3L9NAnvdq-172" value="" style="outlineConnect=0;fontColor=#232F3E;gradientColor=none;fillColor=#B3B3B3;strokeColor=none;dashed=0;verticalLabelPosition=bottom;verticalAlign=top;align=center;html=1;fontSize=12;fontStyle=0;aspect=fixed;pointerEvents=1;shape=mxgraph.aws4.encrypted_data;labelBackgroundColor=#ffffff;" parent="jZVaUwOg5UY3L9NAnvdq-170" vertex="1">
          <mxGeometry width="21" height="26" as="geometry" />
        </mxCell>
        <mxCell id="jZVaUwOg5UY3L9NAnvdq-173" value="" style="group" parent="1" vertex="1" connectable="0">
          <mxGeometry x="252.50000000000006" y="404.5" width="21" height="26" as="geometry" />
        </mxCell>
        <mxCell id="jZVaUwOg5UY3L9NAnvdq-174" value="" style="rounded=0;whiteSpace=wrap;html=1;labelBackgroundColor=#ffffff;fontSize=14;align=center;strokeColor=none;" parent="jZVaUwOg5UY3L9NAnvdq-173" vertex="1">
          <mxGeometry width="21" height="26" as="geometry" />
        </mxCell>
        <mxCell id="jZVaUwOg5UY3L9NAnvdq-175" value="" style="outlineConnect=0;fontColor=#232F3E;gradientColor=none;fillColor=#B3B3B3;strokeColor=none;dashed=0;verticalLabelPosition=bottom;verticalAlign=top;align=center;html=1;fontSize=12;fontStyle=0;aspect=fixed;pointerEvents=1;shape=mxgraph.aws4.encrypted_data;labelBackgroundColor=#ffffff;" parent="jZVaUwOg5UY3L9NAnvdq-173" vertex="1">
          <mxGeometry width="21" height="26" as="geometry" />
        </mxCell>
        <mxCell id="jZVaUwOg5UY3L9NAnvdq-176" value="" style="group" parent="1" vertex="1" connectable="0">
          <mxGeometry x="253.00000000000006" y="369" width="21" height="26" as="geometry" />
        </mxCell>
        <mxCell id="jZVaUwOg5UY3L9NAnvdq-177" value="" style="rounded=0;whiteSpace=wrap;html=1;labelBackgroundColor=#ffffff;fontSize=14;align=center;strokeColor=none;" parent="jZVaUwOg5UY3L9NAnvdq-176" vertex="1">
          <mxGeometry width="21" height="26" as="geometry" />
        </mxCell>
        <mxCell id="jZVaUwOg5UY3L9NAnvdq-178" value="" style="outlineConnect=0;fontColor=#232F3E;gradientColor=none;fillColor=#B3B3B3;strokeColor=none;dashed=0;verticalLabelPosition=bottom;verticalAlign=top;align=center;html=1;fontSize=12;fontStyle=0;aspect=fixed;pointerEvents=1;shape=mxgraph.aws4.encrypted_data;labelBackgroundColor=#ffffff;" parent="jZVaUwOg5UY3L9NAnvdq-176" vertex="1">
          <mxGeometry width="21" height="26" as="geometry" />
        </mxCell>
        <mxCell id="1CcSn6TsTYNcUzMV3FvQ-36" value="" style="fillColor=none;strokeColor=#5A6C86;dashed=1;verticalAlign=top;fontStyle=0;fontColor=#5A6C86;whiteSpace=wrap;html=1;" vertex="1" parent="1">
          <mxGeometry x="610" y="540" width="500" height="100" as="geometry" />
        </mxCell>
      </root>
    </mxGraphModel>
  </diagram>
</mxfile>
